<svg width="947" height="620" viewBox="0 0 947 620" fill="none" xmlns="http://www.w3.org/2000/svg">
<g opacity="0.3">
<path d="M126.445 611.815C134.12 575.686 144.039 539.825 156.121 504.468C161.498 488.751 167.489 472.783 178.354 459.537C206.101 425.675 256.126 419.454 299.058 421.673C338.596 423.713 377.467 430.286 414.589 441.222C451.382 452.056 487.111 467.279 526.262 469.397C565.425 471.508 610.483 456.757 630.597 422.787C642.566 402.569 643.882 378.432 638.388 357.123C632.889 335.803 621.13 316.898 608.177 299.258C593.34 279.055 576.204 258.837 573.358 233.593C570.401 207.462 585.001 178.884 609.099 163.619C643.382 141.909 686.297 148.75 725.501 151.409C775.303 154.782 828.469 149.123 873.167 123.396C917.858 97.6875 951.582 48.4632 945.598 1.34325" stroke="white" stroke-miterlimit="10"/>
<path d="M135.454 618.055C142.955 582.536 152.834 547.292 164.931 512.629C170.315 497.223 176.317 481.577 186.981 468.552C208.402 442.394 243.045 432.557 277.286 430.22C286.61 429.573 295.916 429.49 304.912 429.774C343.6 431.019 381.74 436.737 418.275 446.715C454.475 456.608 489.664 471 528.195 472.624C549.792 473.533 573.045 469.856 593.359 461.007C611.056 453.292 626.575 441.485 636.457 425.307C638.226 422.416 639.775 419.443 641.115 416.41C649.389 397.664 649.656 376.618 644.949 357.605C643.434 351.499 641.45 345.572 639.114 339.793C633.008 324.725 624.542 310.647 615.651 297.203C601.561 275.856 586.262 254.448 584.395 228.764C582.545 203.251 596.438 175.63 619.904 160.611C653.294 139.248 694.92 145.098 732.831 146.828C735.811 146.962 738.824 147.064 741.82 147.13C787.291 148.121 834.609 140.789 874.471 116.709C916.982 91.0279 948.655 43.022 942.136 -2.6917" stroke="#F9F9F9" stroke-miterlimit="10"/>
<path d="M144.443 624.296C151.783 589.376 161.601 554.771 173.732 520.773C179.116 505.664 185.148 490.345 195.61 477.54C216.629 451.823 250.349 441.706 283.744 438.811C292.844 438.009 301.933 437.752 310.739 437.848C348.584 438.311 386 443.156 421.938 452.183C457.546 461.139 492.21 474.663 530.095 475.839C552.388 476.531 576.301 472.864 597.372 463.989C615.672 456.267 631.915 444.331 642.291 427.824C644.146 424.875 645.788 421.823 647.209 418.69C655.965 399.425 656.188 377.754 651.502 358.051C649.996 351.73 648.021 345.587 645.718 339.61C639.705 323.997 631.523 309.232 623.102 295.112C609.776 272.622 596.268 250.059 595.401 223.878C594.579 199.021 607.824 172.309 630.658 157.534C663.156 136.517 703.493 141.377 740.114 142.177C742.994 142.242 745.902 142.263 748.798 142.261C792.677 142.175 837.93 134.006 875.761 109.952C916.086 84.3149 945.715 37.5046 938.66 -6.80775" stroke="#F4F4F4" stroke-miterlimit="10"/>
<path d="M153.411 630.534C160.595 596.226 170.36 562.24 182.5 528.921C187.902 514.115 193.933 499.123 204.212 486.544C224.846 461.273 257.625 450.87 290.192 447.423C299.088 446.471 307.955 446.027 316.57 445.937C353.567 445.604 390.26 449.577 425.605 457.665C460.62 465.682 494.78 478.314 532.013 479.06C555.008 479.516 579.574 475.878 601.391 466.983C620.293 459.254 637.267 447.171 648.137 430.335C650.091 427.32 651.812 424.198 653.307 420.981C662.528 401.193 662.711 378.907 658.047 358.515C656.555 351.99 654.589 345.631 652.327 339.438C646.401 323.268 638.502 307.845 630.558 293.03C617.977 269.392 606.256 245.736 606.417 219.012C606.558 194.845 619.226 169.02 641.442 154.483C673.048 133.812 712.096 137.682 747.425 137.553C750.206 137.548 753.002 137.507 755.805 137.416C798.099 136.236 841.288 127.229 877.06 103.213C915.2 77.6204 942.771 32.0123 935.18 -10.8984" stroke="#EEEEEE" stroke-miterlimit="10"/>
<path d="M162.398 636.78C169.408 603.078 179.133 569.706 191.295 537.06C196.696 522.55 202.751 507.904 212.823 495.534C233.059 470.715 264.91 460.02 296.649 456.021C305.321 454.913 313.985 454.288 322.397 454.016C358.551 452.9 394.52 455.999 429.267 463.137C463.676 470.221 497.332 481.929 533.912 482.276C557.61 482.496 582.824 478.875 605.391 469.973C624.902 462.249 642.593 450.024 653.951 432.849C655.991 429.774 657.806 426.574 659.374 423.274C669.072 402.956 669.21 380.044 664.554 358.969C663.059 352.235 661.12 345.666 658.886 339.262C653.066 322.54 645.431 306.455 637.95 290.952C626.115 266.164 616.154 241.459 617.357 214.156C618.403 190.693 630.559 165.723 652.136 151.449C682.851 131.125 720.605 133.992 754.648 132.944C757.323 132.859 760.019 132.748 762.71 132.595C803.411 130.338 844.549 120.485 878.276 96.5014C914.229 70.9525 939.756 26.5405 931.629 -14.968" stroke="#E9E9E9" stroke-miterlimit="10"/>
<path d="M171.387 643.028C178.236 609.927 187.914 577.187 200.097 545.214C205.504 531.014 211.571 516.689 221.46 504.545C241.312 480.173 272.221 469.191 303.133 464.639C311.581 463.375 320.028 462.576 328.256 462.129C363.561 460.217 398.799 462.461 432.947 468.647C466.758 474.779 499.911 485.563 535.822 485.517C560.218 485.489 586.091 481.908 609.403 472.988C629.518 465.257 647.932 452.904 659.797 435.392C661.936 432.252 663.83 428.981 665.486 425.592C675.667 404.754 675.747 381.224 671.126 359.452C669.645 352.514 667.709 345.717 665.522 339.108C659.794 321.841 652.404 305.089 645.427 288.876C634.285 262.967 626.097 237.206 628.394 209.296C630.279 186.572 641.983 162.442 662.923 148.401C692.745 128.422 729.21 130.298 761.961 128.32C764.537 128.165 767.128 127.973 769.719 127.751C808.827 124.417 847.907 113.706 879.577 89.761C913.356 64.2493 936.807 21.0351 928.162 -19.065" stroke="#E3E3E3" stroke-miterlimit="10"/>
<path d="M180.376 649.277C187.064 616.777 196.689 584.659 208.887 553.377C214.3 539.487 220.378 525.484 230.079 513.553C249.533 489.635 279.513 478.36 309.592 473.243C317.829 471.817 326.06 470.843 334.097 470.208C368.559 467.512 403.073 468.882 436.617 474.104C469.835 479.296 502.486 489.125 537.742 488.709C562.848 488.427 589.38 484.887 613.424 475.954C634.148 468.228 653.279 455.734 665.647 437.875C667.878 434.657 669.858 431.327 671.588 427.855C682.232 406.494 682.286 382.342 677.674 359.886C676.202 352.733 674.281 345.733 672.121 338.914C666.48 321.089 659.373 303.68 652.873 286.771C642.47 259.701 635.963 232.961 639.401 204.406C642.048 182.43 653.371 159.12 673.698 145.329C702.628 125.697 737.804 126.581 769.257 123.659C771.734 123.435 774.219 123.162 776.698 122.877C814.22 118.446 851.241 106.908 880.865 82.9952C912.452 57.5153 933.864 15.5101 924.684 -23.1862" stroke="#DEDEDE" stroke-miterlimit="10"/>
<path d="M189.36 655.517C195.874 623.625 205.465 592.134 217.685 561.526C223.111 547.927 229.194 534.264 238.706 522.547C257.776 499.076 286.828 487.508 316.065 481.845C324.079 480.262 332.099 479.126 339.94 478.291C373.553 474.798 407.343 475.294 440.294 479.575C472.919 483.827 505.068 492.669 539.654 491.921C565.478 491.366 592.65 487.891 617.438 478.94C638.765 471.207 658.628 458.565 671.482 440.397C673.799 437.12 675.872 433.712 677.676 430.156C688.803 408.277 688.793 383.494 684.209 360.36C682.745 352.991 680.838 345.787 678.72 338.751C673.184 320.374 666.335 302.29 660.318 284.698C650.661 256.479 645.789 228.767 650.408 199.548C653.759 178.335 664.778 155.836 684.46 142.296C712.485 123.017 746.385 122.902 776.546 119.049C778.917 118.744 781.308 118.413 783.682 118.047C819.61 112.537 854.573 100.14 882.139 76.2662C911.54 50.8299 930.894 10.029 921.179 -27.263" stroke="#D8D8D8" stroke-miterlimit="10"/>
<path d="M198.338 661.776C204.69 630.486 214.229 599.616 226.458 569.689C231.89 556.4 237.984 543.059 247.3 531.576C265.986 508.552 294.106 496.752 322.493 490.487C330.288 488.76 338.099 487.431 345.749 486.408C378.519 482.13 411.585 481.751 443.937 485.079C475.969 488.39 507.624 496.227 541.546 495.158C568.075 494.336 595.892 490.909 621.432 481.951C643.368 474.223 663.948 461.44 677.304 442.925C679.72 439.582 681.867 436.091 683.764 432.458C695.355 410.054 695.319 384.65 690.756 360.826C689.307 353.253 687.409 345.834 685.318 338.587C679.869 319.653 673.304 300.911 667.75 282.63C658.839 253.262 655.55 224.606 661.396 194.683C665.393 174.249 676.147 152.541 695.198 139.245C722.331 120.313 754.941 119.206 783.809 114.42C786.081 114.046 788.354 113.64 790.628 113.205C824.963 106.616 857.86 93.3789 883.394 69.53C910.607 44.1373 927.917 4.53422 917.666 -31.3527" stroke="#D2D2D2" stroke-miterlimit="10"/>
<path d="M207.329 668.031C213.52 637.343 222.999 607.114 235.264 577.855C240.696 564.864 246.807 551.857 255.935 540.588C274.224 518.018 301.415 505.925 328.974 499.106C336.545 497.223 344.139 495.719 351.599 494.508C383.519 489.433 415.854 488.197 447.62 490.565C479.053 492.923 510.214 499.754 543.464 498.382C570.718 497.269 599.168 493.927 625.465 484.943C648.005 477.209 669.309 464.297 683.172 445.446C685.674 442.045 687.927 438.469 689.885 434.759C701.953 411.825 701.859 385.801 697.323 361.299C695.87 353.517 693.994 345.875 691.95 338.423C686.594 318.944 680.299 299.521 675.229 280.556C667.063 250.038 665.293 220.44 672.436 189.823C677.015 170.17 687.588 149.256 706.007 136.206C732.248 117.62 763.575 115.501 791.144 109.802C793.316 109.358 795.484 108.871 797.658 108.366C830.412 100.692 861.238 86.6016 884.713 62.7912C909.753 37.4355 925.005 -0.962668 914.219 -35.444" stroke="#CDCDCD" stroke-miterlimit="10"/>
<path d="M216.321 674.288C222.338 644.208 231.778 614.595 244.071 586.022C249.522 573.335 255.632 560.657 264.577 549.615C282.476 527.48 308.737 515.124 335.456 507.727C342.809 505.7 350.194 504.003 357.463 502.604C388.54 496.743 420.15 494.631 451.317 496.046C482.143 497.468 512.825 503.256 545.409 501.594C573.369 500.183 602.47 496.931 629.512 487.929C652.662 480.2 674.678 467.135 689.036 447.956C691.637 444.488 693.969 440.842 696.001 437.049C708.552 413.596 708.413 386.946 703.88 361.748C702.441 353.762 700.574 345.904 698.571 338.235C693.314 318.191 687.303 298.111 682.696 278.457C675.289 246.783 674.961 216.253 683.466 184.939C688.588 166.057 698.999 145.943 716.792 133.149C742.141 114.91 772.179 111.798 798.441 105.172C800.508 104.647 802.582 104.103 804.638 103.523C835.792 94.7568 864.571 79.8308 886 56.0522C908.847 30.728 922.048 -6.45282 910.726 -39.528" stroke="white" stroke-miterlimit="10"/>
<path d="M225.307 680.534C231.164 651.057 240.557 622.079 252.853 594.176C258.31 581.799 264.438 569.455 273.176 558.622C290.677 536.942 316.009 524.293 341.9 516.341C349.042 514.151 356.21 512.279 363.282 510.711C393.509 504.052 424.395 501.064 454.949 501.531C485.182 502.012 515.359 506.738 547.276 504.816C575.949 503.089 605.701 499.927 633.482 490.925C657.235 483.189 679.988 469.99 694.834 450.469C697.534 446.936 699.947 443.219 702.06 439.324C715.075 415.347 714.897 388.082 710.398 362.188C708.968 353.986 707.116 345.924 705.14 338.044C699.976 317.455 694.236 296.693 690.112 276.355C683.451 243.532 684.521 212.046 694.432 180.058C700.047 161.943 710.353 142.645 727.508 130.084C751.965 112.192 780.712 108.086 805.682 100.527C807.65 99.9323 809.618 99.307 811.575 98.6577C841.134 88.8113 867.854 73.0251 887.225 49.2849C907.884 24.0042 919.04 -11.9775 907.183 -43.646" stroke="white" stroke-miterlimit="10"/>
<path d="M234.3 686.793C239.983 657.925 249.343 629.575 261.662 602.348C267.119 590.269 273.265 578.26 281.814 567.642C298.931 546.41 323.334 533.466 348.383 524.967C355.302 522.621 362.253 520.574 369.148 518.81C398.53 511.365 428.691 507.501 458.647 507.014C488.286 506.552 517.977 510.222 549.208 508.035C578.601 505.972 608.991 502.938 637.516 493.918C661.879 486.187 685.35 472.847 700.691 452.998C703.477 449.406 705.983 445.611 708.169 441.633C721.662 417.126 721.439 389.234 716.955 362.668C715.539 354.262 713.689 345.972 711.761 337.887C706.689 316.752 701.271 295.313 697.58 274.287C691.735 240.292 694.043 207.858 705.462 175.204C711.525 157.865 721.778 139.356 738.308 127.052C761.872 109.507 789.329 104.407 813.006 95.9144C814.874 95.2503 816.737 94.5435 818.581 93.8314C846.546 82.9044 871.213 66.2697 888.537 42.5614C907.009 17.3241 916.107 -17.4515 903.728 -47.7194" stroke="#BCBCBC" stroke-miterlimit="10"/>
<path d="M243.294 693.054C248.816 664.789 258.123 637.063 270.458 610.529C275.934 598.755 282.079 587.075 290.445 576.683C307.165 555.906 330.639 542.669 354.854 533.603C361.549 531.101 368.302 528.884 374.987 526.927C403.526 518.695 432.949 513.961 462.318 512.513C491.364 511.108 520.556 513.697 551.127 511.262C581.227 508.871 612.266 505.958 641.538 496.919C666.504 489.182 690.699 475.713 706.542 455.516C709.427 451.859 712.012 447.993 714.273 443.932C728.249 418.905 727.967 390.394 723.505 363.137C722.085 354.522 720.263 346.021 718.362 337.726C713.377 316.033 708.25 293.918 705.015 272.221C699.929 237.07 703.457 203.65 716.46 170.352C722.94 153.759 733.158 136.077 749.063 124.03C771.735 106.832 797.901 100.737 820.285 91.3106C822.047 90.5651 823.817 89.8008 825.555 89.0072C851.939 76.9926 874.533 59.5038 889.811 35.8271C906.108 10.6267 913.149 -22.9425 900.221 -51.796" stroke="#B7B7B7" stroke-miterlimit="10"/>
<path d="M252.275 699.323C257.637 671.662 266.898 644.571 279.254 618.713C284.73 607.238 290.894 595.893 299.059 585.723C315.395 565.394 337.926 551.869 361.299 542.255C367.783 539.589 374.307 537.204 380.801 535.059C408.489 526.029 437.194 520.43 465.963 518.026C494.41 515.667 523.117 517.167 553.006 514.51C583.815 511.76 615.497 508.986 645.52 499.94C671.077 492.204 696.003 478.587 712.36 458.068C715.325 454.339 718.009 450.407 720.357 446.256C734.797 420.706 734.483 391.561 730.048 363.626C728.643 354.807 726.83 346.09 724.97 337.578C720.091 315.333 715.228 292.554 712.47 270.161C708.13 233.86 712.803 199.403 727.479 165.506C734.338 149.649 744.565 132.816 759.851 121.008C781.63 104.157 806.501 97.0545 827.597 86.7063C829.259 85.8912 830.91 85.0522 832.549 84.189C857.332 71.0811 877.866 52.7618 891.097 29.1169C905.207 3.95989 910.189 -28.4025 896.74 -55.8544" stroke="white" stroke-miterlimit="10"/>
<path d="M261.267 705.583C266.461 678.544 275.677 652.057 288.056 626.876C293.538 615.71 299.713 604.689 307.69 594.733C323.629 574.859 345.238 561.021 367.775 550.871C374.036 548.049 380.356 545.482 386.659 543.148C413.504 533.331 441.478 526.843 469.653 523.496C497.506 520.193 525.71 520.6 554.943 517.707C586.475 514.591 618.793 511.975 649.561 502.911C675.728 495.18 701.386 481.416 718.218 460.562C721.282 456.768 724.046 452.765 726.468 448.531C741.391 422.462 741.02 392.696 736.6 364.057C735.204 355.022 733.405 346.102 731.573 337.379C726.78 314.575 722.194 291.126 719.92 268.048C716.326 230.597 722.062 195.069 738.486 160.594C745.707 145.437 755.968 129.47 770.609 117.913C791.496 101.41 815.076 93.3119 834.878 82.0291C836.441 81.1445 837.987 80.2239 839.526 79.2912C862.714 65.1014 881.188 45.9205 892.373 22.3069C904.289 -2.81901 907.232 -33.9694 893.248 -60.0132" stroke="#ABABAB" stroke-miterlimit="10"/>
<path d="M270.272 711.872C275.305 685.435 284.462 659.591 296.864 635.085C302.365 624.223 308.539 613.531 316.333 603.802C331.888 584.376 352.555 570.25 374.264 559.544C380.3 556.566 386.404 553.823 392.517 551.301C418.511 540.684 445.767 533.331 473.33 529.035C500.576 524.795 528.296 524.083 556.854 520.979C589.097 517.473 622.063 515.04 653.591 505.951C680.362 498.213 706.744 484.32 724.085 463.13C727.247 459.27 730.092 455.196 732.587 450.878C747.975 424.284 747.577 393.895 743.166 364.571C741.778 355.32 739.988 346.183 738.203 337.254C733.502 313.904 729.193 289.784 727.396 266.009C724.553 227.417 731.247 190.735 749.526 155.763C757.076 141.308 767.396 126.224 781.405 114.913C801.387 98.7623 823.69 89.6622 842.199 77.4443C843.656 76.4781 845.102 75.4879 846.529 74.4923C868.135 59.2133 884.542 39.1888 893.667 15.6126C903.394 -9.47098 904.293 -39.422 889.773 -64.0578" stroke="#A6A6A6" stroke-miterlimit="10"/>
<path d="M279.276 718.162C284.149 692.328 293.253 667.107 305.684 643.288C311.186 632.726 317.378 622.368 324.984 612.854C340.155 593.876 359.873 579.45 380.754 568.189C386.566 565.054 392.465 562.129 398.394 559.431C423.544 548.026 450.075 539.795 477.033 534.531C503.686 529.347 530.903 527.51 558.786 524.195C591.733 520.287 625.361 518.03 657.627 508.94C685.009 501.208 712.11 487.175 729.953 465.637C733.201 461.717 736.139 457.565 738.722 453.158C754.587 426.031 754.131 395.022 749.76 365.011C748.373 355.562 746.605 346.202 744.847 337.062C740.246 313.146 736.22 288.367 734.873 263.908C732.79 224.158 740.348 186.265 760.554 150.878C768.429 137.081 778.808 122.913 792.204 111.852C811.294 96.0483 832.306 85.9519 849.521 72.7986C850.879 71.7628 852.225 70.703 853.546 69.6258C873.551 53.2519 887.904 32.3768 894.983 8.83133C902.535 -16.2164 901.361 -44.9541 886.306 -68.1814" stroke="#A0A0A0" stroke-miterlimit="10"/>
<path d="M288.274 724.439C292.973 699.215 302.045 674.623 314.48 651.476C319.988 641.224 326.198 631.201 333.602 621.908C348.37 603.374 367.147 588.629 387.217 576.848C392.812 573.537 398.501 570.45 404.226 567.569C428.527 555.364 454.325 546.274 480.696 540.047C506.755 533.918 533.465 530.945 560.696 527.435C594.355 523.106 628.63 521.063 661.643 511.955C689.63 504.216 717.449 490.041 735.787 468.174C739.135 464.189 742.166 459.959 744.809 455.475C761.158 427.829 760.657 396.191 756.294 365.494C754.916 355.829 753.163 346.265 751.445 336.908C746.937 312.445 743.182 286.983 742.319 261.839C740.981 220.937 749.311 181.744 771.564 146.018C779.758 132.868 790.22 119.633 802.965 108.811C821.163 93.3546 840.883 82.2617 856.805 68.1727C858.058 67.0552 859.304 65.9258 860.52 64.7669C878.929 47.3098 891.228 25.5837 896.246 2.07582C901.609 -22.9294 898.39 -50.4666 882.8 -72.2847" stroke="#9B9B9B" stroke-miterlimit="10"/>
<path d="M297.266 730.733C301.805 706.114 310.824 682.146 323.288 659.687C328.81 649.728 335.025 640.047 342.241 630.969C356.625 612.883 374.459 597.85 393.7 585.513C399.072 582.045 404.55 578.794 410.091 575.706C433.547 562.714 458.615 552.732 484.392 545.561C509.851 538.476 536.058 534.376 562.626 530.679C596.985 525.905 631.919 524.1 665.679 514.973C694.275 507.24 722.827 492.918 741.66 470.721C745.094 466.677 748.212 462.357 750.935 457.802C767.749 429.631 767.202 397.365 762.867 365.988C761.504 356.119 759.753 346.326 758.069 336.77C753.653 311.761 750.175 285.628 749.789 259.786C749.197 217.732 758.22 177.145 782.6 141.175C791.096 128.637 801.639 116.364 813.758 105.8C831.07 90.7027 849.5 78.5822 864.121 63.5759C865.273 62.3889 866.401 61.1844 867.517 59.9559C884.344 41.4086 894.569 18.8261 897.54 -4.65085C900.715 -29.6135 895.437 -55.943 879.324 -76.358" stroke="#959595" stroke-miterlimit="10"/>
<path d="M306.272 737.023C310.638 713.014 319.624 689.676 332.111 667.894C337.639 658.246 343.866 648.888 350.894 640.025C364.881 622.395 381.799 607.06 400.185 594.18C405.332 590.556 410.606 587.123 415.944 583.853C438.55 570.06 462.898 559.212 488.075 551.083C512.941 543.053 538.646 537.797 564.556 533.925C599.617 528.675 635.208 527.137 669.714 517.993C698.916 510.252 728.193 495.802 747.515 473.264C751.048 469.154 754.245 464.763 757.05 460.106C774.348 431.415 773.756 398.521 769.442 366.453C768.088 356.367 766.351 346.37 764.708 336.597C760.392 311.021 757.184 284.236 757.275 257.697C757.442 214.485 767.073 172.396 793.652 136.296C802.464 124.332 813.08 113.073 824.581 102.747C841 87.9972 858.139 74.8796 871.465 58.9371C872.518 57.6803 873.546 56.4062 874.557 55.0961C889.788 35.465 897.945 12.0379 898.868 -11.4081C899.848 -36.3401 892.53 -61.4562 875.869 -80.4542" stroke="#909090" stroke-miterlimit="10"/>
<path d="M315.277 743.312C325.056 688.924 360.349 638.319 406.668 602.849C452.987 567.378 509.575 546.299 566.47 537.176C602.227 531.439 638.477 530.169 673.735 521.018C708.993 511.866 744.512 493.114 763.163 462.44C786.517 424.038 778.075 378.239 771.326 336.448C760.206 267.738 758.101 189.74 804.669 131.449C827.862 102.417 861.243 81.115 881.53 50.2698C909.652 7.50505 905.725 -50.4043 872.367 -84.5414" stroke="#8A8A8A" stroke-miterlimit="10"/>
</g>
</svg>
