<svg width="1439" height="577" viewBox="0 0 1439 577" fill="none" xmlns="http://www.w3.org/2000/svg">
<g opacity="0.3" clip-path="url(#clip0_53395_27706)">
<path d="M295.479 599.697C319.215 570.99 344.92 543.537 372.41 517.512C384.637 505.947 397.55 494.435 413.761 487.551C455.172 469.943 504.674 487.031 543.689 508.428C579.62 528.13 612.85 551.568 642.447 578.1C671.785 604.392 698.116 634.113 733.65 653.709C769.2 673.305 817.984 680.548 852.329 659.391C872.767 646.799 885.07 625.896 889.726 604.433C894.381 582.956 892.092 560.799 888.108 539.229C883.544 514.524 876.843 488.765 885.772 464.994C895.007 440.383 921.735 421.534 951.209 418.839C993.14 415.011 1030.02 440.516 1065.35 460.619C1110.25 486.151 1162.42 505.16 1215.9 502.465C1269.37 499.784 1323.41 471.197 1339.45 426.523" stroke="white" stroke-miterlimit="10"/>
<path d="M301.021 609.288C324.314 581.048 349.698 554.129 376.883 528.731C388.972 517.445 401.748 506.227 417.669 499.45C449.647 485.844 486.464 492.754 519.465 506.16C528.456 509.802 537.171 513.937 545.429 518.259C580.933 536.868 613.873 559.212 643.364 584.623C672.579 609.808 698.787 638.542 733.971 657.417C753.692 667.996 777.062 675.239 800.065 676.546C820.106 677.68 839.996 674.185 856.633 664.247C859.61 662.473 862.419 660.525 865.059 658.431C881.376 645.478 891.283 626.856 895.618 607.794C897.007 601.671 897.877 595.495 898.35 589.292C899.571 573.111 898.136 556.744 896.015 540.75C892.672 515.364 888.23 489.379 898.274 465.661C908.257 442.104 933.885 423.788 962.658 421.027C1003.6 417.105 1039.73 441.143 1074.28 459.832C1077 461.299 1079.76 462.753 1082.53 464.167C1124.47 485.617 1171.96 500.491 1220.18 497.076C1271.6 493.434 1323.16 465.008 1338.06 421.347" stroke="#F9F9F9" stroke-miterlimit="10"/>
<path d="M306.561 618.879C329.427 591.106 354.46 564.734 381.37 539.949C393.322 528.931 405.976 518.019 421.607 511.349C453.005 497.956 489.089 504.199 521.556 516.725C530.409 520.127 539.003 524.008 547.169 528.077C582.246 545.605 614.911 566.842 644.279 591.133C673.373 615.211 699.489 642.93 734.276 661.112C754.745 671.811 778.725 679.361 802.446 680.988C823.052 682.389 843.674 679.107 860.922 669.103C864.006 667.315 866.936 665.341 869.699 663.193C886.703 650 896.854 630.805 901.525 611.142C903.021 604.833 903.998 598.47 904.593 592.107C906.15 575.486 905.295 558.638 903.921 542.257C901.815 516.205 899.571 490.006 910.775 466.301C921.414 443.798 946.02 426.003 974.09 423.175C1014.04 419.159 1049.42 441.73 1083.2 459.005C1085.85 460.365 1088.56 461.699 1091.26 463.007C1132.21 482.776 1178.16 495.969 1224.47 491.66C1273.83 487.071 1322.94 458.791 1336.69 416.145" stroke="#F4F4F4" stroke-miterlimit="10"/>
<path d="M312.087 628.457C334.525 601.164 359.222 575.326 385.827 551.154C397.657 540.416 410.158 529.798 425.514 523.248C456.348 510.082 491.684 515.644 523.632 527.303C532.363 530.478 540.834 534.093 548.909 537.908C583.558 554.343 615.949 574.472 645.195 597.656C674.166 620.627 700.222 647.319 734.597 664.821C755.829 675.626 780.404 683.496 804.827 685.444C825.998 687.111 847.368 684.03 865.227 673.958C868.432 672.157 871.47 670.157 874.339 667.969C892.015 654.523 902.41 634.767 907.417 614.504C909.019 608.021 910.103 601.471 910.836 594.935C912.729 577.86 912.439 560.559 911.828 543.778C910.943 517.045 910.866 490.686 923.276 466.968C934.495 445.518 958.155 428.257 985.538 425.362C1024.49 421.254 1059.13 442.357 1092.13 458.218C1094.72 459.472 1097.35 460.699 1100 461.886C1139.98 479.961 1184.38 491.473 1228.76 486.271C1276.06 480.735 1322.69 452.602 1335.3 410.969" stroke="#EEEEEE" stroke-miterlimit="10"/>
<path d="M317.628 638.048C339.623 611.222 364 585.917 390.315 562.36C402.008 551.888 414.371 541.59 429.437 535.134C459.691 522.194 494.294 527.077 525.723 537.868C534.317 540.803 542.681 544.165 550.649 547.726C584.871 563.08 616.987 582.102 646.111 604.166C674.945 626.029 700.955 651.668 734.902 668.516C756.898 679.428 782.068 687.605 807.193 689.886C828.929 691.833 851.031 688.952 869.501 678.801C872.813 676.986 875.973 674.959 878.949 672.731C897.312 659.031 907.951 638.702 913.278 617.839C914.973 611.169 916.178 604.446 917.033 597.736C919.277 580.221 919.536 562.453 919.674 545.272C920.01 517.859 922.055 491.367 935.701 467.609C947.439 447.199 970.229 430.472 996.895 427.524C1034.86 423.322 1068.74 442.944 1100.97 457.404C1103.5 458.538 1106.06 459.658 1108.64 460.739C1147.63 477.133 1190.5 486.965 1232.95 480.868C1278.2 474.385 1322.37 446.399 1333.83 405.78" stroke="#E9E9E9" stroke-miterlimit="10"/>
<path d="M323.169 647.639C344.737 621.281 368.778 596.522 394.803 573.578C406.358 563.387 418.585 553.382 433.375 547.046C463.064 534.333 496.92 538.535 527.83 548.46C536.286 551.154 544.529 554.263 552.405 557.584C586.199 571.844 618.025 589.773 647.027 610.716C675.739 631.459 701.703 656.043 735.207 672.238C757.966 683.243 783.732 691.753 809.559 694.355C831.86 696.569 854.695 693.901 873.79 683.683C877.225 681.855 880.491 679.801 883.59 677.533C902.639 663.594 913.507 642.69 919.185 621.227C920.987 614.384 922.299 607.461 923.292 600.591C925.871 582.636 926.665 564.387 927.596 546.806C929.092 518.713 933.274 492.087 948.218 468.289C960.399 448.92 982.379 432.739 1008.34 429.711C1045.31 425.416 1078.45 443.571 1109.9 456.617C1112.37 457.644 1114.87 458.645 1117.39 459.618C1155.38 474.332 1196.73 482.469 1237.24 475.479C1280.44 468.049 1322.13 440.196 1332.46 400.604" stroke="#E3E3E3" stroke-miterlimit="10"/>
<path d="M328.709 657.231C349.85 631.339 373.555 607.114 399.275 584.797C410.693 574.886 422.782 565.174 437.298 558.945C466.407 546.459 499.53 549.981 529.921 559.025C538.255 561.479 546.375 564.334 554.16 567.402C587.527 580.582 619.078 597.403 647.958 617.212C676.548 636.848 702.481 660.352 735.543 675.919C759.08 687.018 785.442 695.862 811.955 698.783C834.821 701.278 858.389 698.81 878.11 688.512C881.666 686.658 885.04 684.59 888.245 682.282C907.966 668.089 919.094 646.626 925.093 624.562C927.001 617.532 928.42 610.435 929.535 603.392C932.45 584.984 933.808 566.282 935.503 548.3C938.22 519.513 944.417 492.781 960.719 468.929C973.266 450.574 994.514 434.954 1019.79 431.872C1055.77 427.483 1088.16 444.171 1118.82 455.79C1121.24 456.71 1123.68 457.591 1126.12 458.458C1163.14 471.477 1202.94 477.947 1241.53 470.063C1282.67 461.673 1321.9 433.98 1331.09 395.402" stroke="#DEDEDE" stroke-miterlimit="10"/>
<path d="M334.25 666.808C354.948 641.383 378.333 617.705 403.763 596.002C415.058 586.358 426.995 576.953 441.236 570.83C469.78 558.571 502.17 561.413 532.027 569.59C540.224 571.804 548.222 574.419 555.915 577.22C588.855 589.306 620.131 605.02 648.889 623.722C677.356 642.25 703.275 664.647 735.864 679.614C760.195 690.793 787.12 699.984 814.336 703.225C837.767 705.987 862.082 703.719 882.399 693.367C886.062 691.5 889.558 689.406 892.87 687.058C913.278 672.624 924.635 650.574 930.969 627.924C932.984 620.707 934.51 613.437 935.762 606.22C939.029 587.371 940.937 568.189 943.394 549.82C947.332 520.353 955.499 493.501 973.205 469.596C986.057 452.242 1006.65 437.208 1031.21 434.06C1066.18 429.578 1097.84 444.798 1127.72 455.003C1130.07 455.803 1132.46 456.59 1134.84 457.337C1170.86 468.676 1209.14 473.452 1245.79 464.674C1284.87 455.336 1321.62 427.79 1329.67 390.226" stroke="#006D30" stroke-miterlimit="10"/>
<path d="M339.776 676.4C360.047 651.441 383.095 628.297 408.22 607.207C419.378 597.843 431.177 588.732 445.129 582.729C473.108 570.697 504.735 572.911 534.072 580.168C542.132 582.156 550.023 584.503 557.625 587.051C590.137 598.056 621.139 612.663 649.774 630.245C678.12 647.666 704.038 668.943 736.154 683.323C761.263 694.581 788.769 704.106 816.687 707.681C840.682 710.722 865.731 708.655 886.673 698.223C890.458 696.342 894.061 694.208 897.495 691.834C918.575 677.147 930.191 654.536 936.861 631.285C938.983 623.895 940.616 616.438 941.99 609.048C945.592 589.746 948.065 570.11 951.271 551.341C956.43 521.194 966.504 494.221 985.676 470.25C998.772 453.883 1018.75 439.436 1042.61 436.221C1076.59 431.646 1107.5 445.399 1136.61 454.189C1138.9 454.883 1141.2 455.55 1143.52 456.19C1178.55 465.848 1215.29 468.943 1250.03 459.272C1287.05 448.987 1321.35 421.587 1328.25 385.037" stroke="#D2D2D2" stroke-miterlimit="10"/>
<path d="M345.317 685.991C365.16 661.499 387.858 638.902 412.708 618.426C423.728 609.328 435.39 600.524 449.067 594.628C476.466 582.822 507.36 584.356 536.179 590.746C544.101 592.494 551.87 594.588 559.38 596.882C591.465 606.794 622.177 620.307 650.705 636.768C678.929 653.069 704.847 673.225 736.474 687.031C762.393 698.356 790.448 708.241 819.084 712.136C843.643 715.444 869.425 713.59 890.993 703.092C894.885 701.198 898.625 699.037 902.151 696.622C923.917 681.682 935.762 658.498 942.768 634.66C944.982 627.083 946.737 619.439 948.248 611.889C952.186 592.147 955.224 572.031 959.193 552.875C965.573 522.047 977.494 494.928 998.192 470.93C1011.47 455.523 1030.92 441.703 1054.07 438.422C1087.06 433.753 1117.24 446.025 1145.55 453.415C1147.78 454.002 1150.02 454.549 1152.28 455.083C1186.34 463.06 1221.54 464.461 1254.34 453.896C1289.31 442.664 1321.13 415.411 1326.89 379.875" stroke="#CDCDCD" stroke-miterlimit="10"/>
<path d="M350.858 695.582C370.258 671.557 392.635 649.493 417.195 629.644C428.094 620.827 439.603 612.316 453.005 606.54C479.839 594.948 509.986 595.828 538.285 601.324C546.07 602.845 553.733 604.673 561.151 606.714C592.809 615.544 623.245 627.95 651.652 643.291C679.738 658.484 705.687 677.493 736.825 690.739C763.537 702.118 792.158 712.376 821.495 716.591C846.62 720.18 873.134 718.512 895.312 707.947C899.327 706.04 903.173 703.852 906.806 701.398C929.26 686.217 941.349 662.46 948.676 638.008C950.996 630.258 952.858 622.428 954.506 614.704C958.796 594.508 962.398 573.938 967.115 554.382C974.731 522.874 988.423 495.582 1010.71 471.584C1024.14 457.11 1043.07 443.931 1065.52 440.596C1097.52 435.834 1126.94 446.639 1154.47 452.615C1156.63 453.082 1158.82 453.535 1161 453.949C1194.06 460.232 1227.73 459.965 1258.61 448.506C1291.52 436.314 1320.88 409.221 1325.48 374.699" stroke="#4643EB" stroke-miterlimit="10"/>
<path d="M356.398 705.16C375.372 681.602 397.413 660.085 421.668 640.836C432.429 632.299 443.801 624.095 456.912 618.412C483.167 607.047 512.581 607.247 540.361 611.876C548.024 613.157 555.564 614.731 562.876 616.532C594.106 624.269 624.268 635.567 652.537 649.787C680.501 663.874 706.465 681.709 737.1 694.421C764.621 705.84 793.806 716.471 823.831 721.02C849.52 724.875 876.782 723.421 899.571 712.776C903.708 710.856 907.661 708.641 911.416 706.133C934.541 690.699 946.874 666.381 954.552 641.33C956.979 633.393 958.948 625.389 960.719 617.492C965.344 596.856 969.511 575.806 974.991 555.863C983.829 523.675 999.261 496.169 1023.16 472.211C1036.7 458.645 1055.16 446.145 1076.91 442.731C1107.91 437.875 1136.59 447.213 1163.33 451.775C1165.44 452.135 1167.56 452.468 1169.68 452.775C1201.75 457.377 1233.9 455.416 1262.84 443.064C1293.69 429.925 1320.59 402.979 1324.05 369.47" stroke="#4643EB" stroke-miterlimit="10"/>
<path d="M361.939 714.751C380.47 691.66 402.191 670.69 426.155 652.055C436.779 643.784 448.014 635.887 460.851 630.311C486.54 619.173 515.221 618.693 542.468 622.454C549.993 623.495 557.411 624.815 564.646 626.363C595.449 633.019 625.336 643.211 653.483 656.31C681.325 669.289 707.32 685.964 737.436 698.13C765.781 709.575 795.5 720.607 826.227 725.476C852.481 729.611 880.476 728.357 903.875 717.645C908.119 715.711 912.194 713.47 916.056 710.922C939.868 695.235 952.446 670.343 960.444 644.705C962.978 636.594 965.054 628.39 966.962 620.333C971.923 599.257 976.7 577.753 982.898 557.397C993.033 524.542 1010.05 496.756 1035.67 472.891C1049.27 460.219 1067.31 448.4 1088.36 444.931C1118.37 439.982 1146.3 447.853 1172.26 451.001C1174.31 451.254 1176.37 451.468 1178.42 451.668C1209.49 454.589 1240.11 450.948 1267.13 437.701C1295.92 423.615 1320.34 396.816 1322.68 364.321" stroke="#BCBCBC" stroke-miterlimit="10"/>
<path d="M367.48 724.342C385.583 701.718 406.968 681.282 430.628 663.273C441.129 655.283 452.211 647.679 464.773 642.223C489.883 631.312 517.831 630.151 544.559 633.032C551.947 633.833 559.258 634.913 566.386 636.194C596.762 641.77 626.359 650.854 654.399 662.833C682.119 674.705 708.144 690.192 737.756 701.838C766.911 713.31 797.179 724.742 828.608 729.931C855.427 734.333 884.154 733.293 908.18 722.501C912.545 720.553 916.728 718.285 920.696 715.698C945.195 699.77 958.002 674.305 966.336 648.066C968.962 639.769 971.16 631.392 973.19 623.161C978.486 601.631 983.844 579.661 990.774 558.918C1002.15 525.382 1020.75 497.276 1048.14 473.558C1061.78 461.739 1079.41 450.641 1099.76 447.119C1128.78 442.077 1155.96 448.48 1181.15 450.214C1183.13 450.347 1185.13 450.467 1187.12 450.547C1217.22 451.788 1246.29 446.452 1271.39 432.312C1298.13 417.279 1320.08 390.626 1321.26 359.145" stroke="#B7B7B7" stroke-miterlimit="10"/>
<path d="M373.006 733.933C390.681 711.776 411.731 691.887 435.1 674.492C445.464 666.768 456.409 659.472 468.681 654.122C493.226 643.437 520.426 641.597 546.619 643.611C553.885 644.171 561.059 644.998 568.096 646.025C598.044 650.507 627.366 658.498 655.284 669.356C682.882 680.108 708.953 694.408 738.031 705.546C768.01 717.018 798.813 728.864 830.944 734.387C858.312 739.055 887.787 738.215 912.439 727.37C916.911 725.396 921.215 723.115 925.306 720.487C950.477 704.306 963.543 678.267 972.213 651.441C974.945 642.971 977.25 634.407 979.417 626.003C985.065 604.032 990.972 581.595 998.665 560.452C1011.26 526.236 1031.41 497.73 1060.62 474.239C1074.28 463.247 1091.53 452.909 1111.19 449.32C1139.22 444.185 1165.65 449.107 1190.06 449.44C1191.99 449.467 1193.91 449.467 1195.83 449.44C1224.94 448.987 1252.48 441.984 1275.65 426.95C1300.33 410.969 1319.81 384.463 1319.85 353.996" stroke="#4643EB" stroke-miterlimit="10"/>
<path d="M378.547 743.511C395.78 721.834 416.508 702.465 439.588 685.684C449.815 678.24 460.622 671.237 472.619 665.995C496.584 655.536 523.067 653.002 548.726 654.162C555.854 654.483 562.922 655.056 569.867 655.83C599.387 659.231 628.435 666.101 656.231 675.853C683.706 685.497 709.808 698.597 738.382 709.228C769.2 720.7 800.522 732.973 833.355 738.815C861.289 743.764 891.512 743.124 916.758 732.199C921.353 730.211 925.764 727.904 929.962 725.236C955.819 708.815 969.114 682.202 978.12 654.763C980.959 646.105 983.371 637.368 985.66 628.791C991.644 606.367 998.116 583.463 1006.57 561.933C1020.39 527.037 1042.02 498.063 1073.12 474.852C1086.8 464.647 1103.68 455.096 1122.63 451.441C1149.66 446.212 1175.35 449.667 1198.98 448.587C1200.84 448.507 1202.7 448.387 1204.56 448.253C1232.68 446.119 1258.69 437.421 1279.94 421.494C1302.56 404.553 1319.58 378.207 1318.48 348.753" stroke="#ABABAB" stroke-miterlimit="10"/>
<path d="M384.088 753.102C400.894 731.892 421.271 713.07 444.06 696.902C454.165 689.739 464.82 683.029 476.542 677.907C499.942 667.675 525.677 664.461 550.817 664.754C557.808 664.834 564.754 665.154 571.607 665.674C600.7 667.982 629.473 673.758 657.132 682.389C684.47 690.926 710.632 702.812 738.673 712.95C770.33 724.395 802.171 737.121 835.722 743.284C864.22 748.5 895.175 748.073 921.048 737.081C925.764 735.08 930.283 732.746 934.587 730.038C961.116 713.363 974.671 686.191 983.997 658.151C986.943 649.307 989.462 640.383 991.889 631.645C998.208 608.781 1005.24 585.41 1014.46 563.48C1029.5 527.917 1052.55 498.357 1085.61 475.546C1099.27 466.115 1115.8 457.377 1134.04 453.656C1160.07 448.333 1185.03 450.321 1207.88 447.826C1209.68 447.626 1211.48 447.399 1213.26 447.159C1240.4 443.344 1264.87 432.966 1284.18 416.145C1304.74 398.257 1319.3 372.058 1317.06 343.618" stroke="#A6A6A6" stroke-miterlimit="10"/>
<path d="M389.628 762.693C406.007 741.95 426.048 723.662 448.548 708.121C458.515 701.224 469.032 694.821 480.48 689.806C503.315 679.801 528.303 675.893 552.924 675.319C559.777 675.159 566.615 675.226 573.377 675.506C602.043 676.733 630.541 681.402 658.078 688.899C685.294 696.329 711.502 706.987 739.008 716.632C771.505 728.037 803.88 741.216 838.118 747.713C867.181 753.209 898.869 752.982 925.367 741.91C930.191 739.896 934.831 737.535 939.258 734.787C966.473 717.859 980.257 690.113 989.934 661.486C992.972 652.468 995.613 643.357 998.162 634.447C1004.83 611.129 1012.43 587.305 1022.39 564.974C1038.66 528.731 1063.06 498.49 1098.11 476.186C1111.77 467.489 1127.94 459.592 1145.49 455.817C1170.52 450.401 1194.73 450.921 1216.8 447.013C1218.54 446.706 1220.28 446.372 1222.01 446.012C1248.16 440.503 1271.1 428.444 1288.48 410.729C1307 391.894 1319.07 365.841 1315.69 338.415" stroke="#A0A0A0" stroke-miterlimit="10"/>
<path d="M395.169 772.271C411.105 751.995 430.826 734.253 453.02 719.313C462.85 712.696 473.23 706.6 484.388 701.691C506.643 691.9 530.897 687.284 554.999 685.884C561.731 685.47 568.447 685.297 575.102 685.324C603.341 685.457 631.549 689.032 658.978 695.408C686.072 701.731 712.326 711.149 739.313 720.326C772.665 731.678 805.544 745.338 840.484 752.155C870.111 757.917 902.532 757.891 929.641 746.752C934.587 744.725 939.349 742.337 943.867 739.549C971.77 722.381 985.798 694.061 995.796 664.834C998.94 655.63 1001.69 646.345 1004.37 637.261C1011.38 613.503 1019.55 589.199 1030.26 566.481C1047.75 529.558 1073.47 498.516 1110.58 476.84C1124.24 468.863 1140.06 461.833 1156.89 457.977C1180.93 452.468 1204.39 451.521 1225.69 446.199C1227.37 445.772 1229.05 445.332 1230.71 444.851C1255.87 437.661 1277.28 423.922 1292.73 405.313C1309.18 385.53 1318.8 359.625 1314.27 333.213" stroke="#9B9B9B" stroke-miterlimit="10"/>
<path d="M400.695 781.862C416.203 762.053 435.589 744.845 457.493 730.531C467.2 724.182 477.427 718.393 488.311 713.59C510.001 704.026 533.508 698.73 557.091 696.462C563.685 695.809 570.279 695.395 576.858 695.155C604.669 694.208 632.602 696.662 659.91 701.931C686.881 707.134 713.181 715.324 739.634 724.035C773.841 735.307 807.223 749.474 842.865 756.61C873.057 762.653 906.226 762.827 933.946 751.621C938.998 749.58 943.883 747.153 948.508 744.338C977.082 726.916 991.354 698.023 1001.69 668.209C1004.94 658.831 1007.79 649.347 1010.6 640.103C1017.94 615.905 1026.68 591.133 1038.15 568.016C1056.87 530.412 1083.87 498.45 1123.07 477.52C1136.73 470.223 1152.18 464.087 1168.31 460.179C1191.36 454.59 1214.09 452.148 1234.59 445.425C1236.21 444.892 1237.81 444.331 1239.41 443.744C1263.59 434.874 1283.46 419.44 1296.99 399.937C1311.38 379.208 1318.52 353.449 1312.86 328.051" stroke="#959595" stroke-miterlimit="10"/>
<path d="M406.236 791.453C421.301 772.111 440.366 755.45 461.98 741.75C471.551 735.681 481.64 730.185 492.249 725.489C513.359 716.151 536.148 710.175 559.182 707.041C565.639 706.147 572.126 705.48 578.598 704.986C605.982 702.945 633.64 704.306 660.825 708.455C687.675 712.55 714.036 719.486 739.954 727.744C775.031 738.909 808.902 753.609 845.246 761.066C876.003 767.375 909.905 767.762 938.235 756.477C943.409 754.423 948.401 751.968 953.148 749.1C982.409 731.439 996.925 701.972 1007.59 671.557C1010.95 661.993 1013.91 652.335 1016.86 642.917C1024.55 618.266 1033.83 593.041 1046.08 569.523C1066.03 531.239 1094.28 498.223 1135.58 478.174C1149.28 471.531 1164.33 466.328 1179.77 462.353C1201.83 456.67 1223.81 452.762 1243.53 444.625C1245.09 443.985 1246.63 443.318 1248.17 442.611C1271.36 432.059 1289.69 414.944 1301.29 394.548C1313.62 372.858 1318.31 347.259 1311.49 322.875" stroke="#909090" stroke-miterlimit="10"/>
<path d="M411.777 801.044C445.8 757.184 501.865 728.197 561.273 717.619C620.681 707.04 683.065 713.87 740.26 731.452C776.207 742.497 810.566 757.731 847.612 765.521C884.658 773.311 926.344 772.698 957.773 753.889C997.124 730.345 1010.24 685.884 1023.09 645.745C1044.2 579.741 1077.96 509.562 1148.06 478.841C1182.96 463.54 1223.83 459.698 1256.86 441.477C1302.65 416.211 1325.52 363.04 1310.07 317.686" stroke="#8A8A8A" stroke-miterlimit="10"/>
<path d="M93.5356 606.714C87.1094 561.359 138.351 523.035 190.02 515.978C241.689 508.935 293.526 523.475 344.721 532.799C395.917 542.123 453.524 545.205 496.294 518.899C550.97 485.27 563.624 414.531 619.872 382.943C663.71 358.318 720.783 365.695 765.705 384.01C791.104 394.361 812.703 411.783 836.973 423.922C947.058 478.961 954.491 591.413 1048.01 608.194C1149.29 626.349 1204.24 583.196 1223.35 553.275C1247.84 514.938 1288.65 415.478 1188.63 346.352C1147.99 318.272 1107.86 288.339 1077.98 251.361C1033.22 196.002 1033.53 111.376 1090.75 65.6214C1129.98 34.2734 1190.23 22.8147 1216.88 -17.3907C1234.79 -44.4033 1232.34 -79.2328 1216.94 -107.419C1201.54 -135.592 1174.72 -157.883 1145.6 -175.945" stroke="#8A8A8A" stroke-miterlimit="10"/>
<path d="M95.8554 608.981C91.4288 562.32 142.38 522.007 195.591 513.99C247.535 506.16 300.226 520.593 351.422 530.878C402.022 541.043 458.194 545.658 500.827 521.754C555.289 491.153 570.599 424.002 626.771 392.827C671.525 368.122 727.682 372.725 773.673 388.732C800.095 397.936 823.51 414.344 848.924 426.656C956.704 478.841 965.573 587.651 1057.07 604.193C1155.47 621.947 1210.13 581.115 1229.99 551.661C1255.16 514.337 1294.1 418.506 1199.59 350.167C1160.62 321.994 1121.98 291.487 1092.57 254.736C1049.13 200.698 1048.73 119.073 1102.75 73.7184C1140.13 42.3438 1198.21 29.5645 1224.74 -10.1206C1242.95 -37.2399 1241.84 -71.576 1228.37 -99.9625C1214.8 -128.616 1190.03 -152.16 1162.04 -171.556" stroke="#909090" stroke-miterlimit="10"/>
<path d="M98.1756 611.236C95.7334 563.28 146.41 520.98 201.162 511.976C253.366 503.386 306.912 517.672 358.123 528.944C408.128 539.949 462.88 546.099 505.376 524.582C559.609 497.023 577.514 433.34 633.701 402.699C679.295 377.834 734.673 379.701 781.686 393.441C809.162 401.471 834.347 416.905 860.922 429.378C966.29 478.841 976.685 583.863 1066.15 600.177C1161.7 617.532 1216.04 579.007 1236.66 550.034C1262.5 513.737 1299.6 421.467 1210.59 353.983C1173.29 325.703 1136.13 294.635 1107.19 258.125C1065.08 205.393 1063.98 126.757 1114.78 81.8423C1150.31 50.4277 1206.23 36.3411 1232.65 -2.81045C1251.16 -30.0498 1251.38 -63.9056 1239.87 -92.4789C1228.12 -121.626 1205.4 -146.424 1178.54 -167.14" stroke="#959595" stroke-miterlimit="10"/>
<path d="M100.496 613.503C100.038 564.24 150.425 519.993 206.734 509.975C259.212 500.637 313.613 514.751 364.824 527.01C414.219 538.829 467.552 546.552 509.91 527.423C563.929 502.892 584.459 442.77 640.601 412.583C687.08 387.598 741.679 386.664 789.655 398.163C818.214 405.006 845.124 419.48 872.89 432.125C975.754 478.974 987.782 580.101 1075.22 596.189C1167.91 613.143 1221.93 576.926 1243.32 548.433C1269.8 513.137 1305.09 424.375 1221.57 357.811C1185.89 329.384 1150.36 297.729 1121.8 261.513C1081.17 209.995 1079.2 134.413 1126.81 89.9526C1160.5 58.4846 1214.13 43.0507 1240.54 4.47276C1259.28 -22.9133 1260.93 -56.2756 1251.33 -85.009C1241.41 -114.676 1220.74 -140.688 1195.02 -162.739" stroke="#9B9B9B" stroke-miterlimit="10"/>
<path d="M102.816 615.771C104.343 565.201 154.455 519.019 212.305 507.987C265.058 497.929 320.299 511.829 371.525 525.102C420.324 537.735 472.222 547.019 514.458 530.291C568.249 508.788 591.42 452.215 647.53 422.494C694.895 397.389 748.762 393.614 797.668 402.925C827.326 408.568 855.946 422.107 884.887 434.9C985.172 479.241 998.91 576.379 1084.31 592.227C1174.16 608.768 1227.83 574.872 1250 546.859C1277.13 512.576 1310.63 427.243 1232.57 361.679C1198.53 333.093 1164.56 300.918 1136.42 264.941C1097.16 214.704 1094.43 142.084 1138.84 98.103C1170.69 66.555 1222.12 49.8539 1248.43 11.7962C1267.45 -15.71 1270.5 -48.632 1262.8 -77.5122C1254.74 -107.726 1236.08 -134.926 1211.49 -158.31" stroke="#A0A0A0" stroke-miterlimit="10"/>
<path d="M105.136 618.039C108.662 566.175 158.484 518.046 217.877 505.987C270.904 495.222 326.985 508.895 378.226 523.168C426.43 536.601 476.939 547.539 518.992 533.133C572.614 514.764 598.38 461.659 654.445 432.366C702.71 407.154 755.86 400.484 805.651 407.634C836.439 412.05 866.723 424.682 896.854 437.621C994.483 479.561 1010.01 572.591 1093.36 588.212C1180.35 604.353 1233.69 572.765 1256.64 545.232C1284.39 511.949 1316.14 429.965 1243.53 365.495C1211.13 336.721 1178.69 304.039 1151.02 268.316C1113.12 219.373 1109.62 149.661 1150.83 106.2C1180.84 74.5456 1230.07 56.5906 1256.31 19.0798C1275.62 -8.53312 1280.07 -41.0416 1274.24 -70.0551C1268.05 -100.843 1251.39 -129.216 1227.96 -153.921" stroke="#A6A6A6" stroke-miterlimit="10"/>
<path d="M107.456 620.293C112.967 567.122 162.514 517.085 223.448 503.972C276.75 492.514 333.685 505.933 384.942 521.234C432.551 535.454 481.625 547.993 523.555 535.974C576.949 520.647 605.371 471.09 661.375 442.25C710.525 416.932 762.988 407.327 813.665 412.356C845.582 415.531 877.514 427.283 908.852 440.356C1003.78 479.975 1021.13 568.829 1102.46 584.21C1186.58 599.95 1239.56 570.67 1263.31 543.618C1291.67 511.336 1321.73 432.606 1254.52 369.31C1223.73 340.309 1192.86 307.174 1165.64 271.691C1129.1 224.042 1124.82 157.197 1162.86 114.297C1191.04 82.5226 1238.07 63.3403 1264.2 26.3498C1283.8 -1.38316 1289.69 -33.4915 1285.71 -62.5984C1281.4 -93.9597 1266.73 -123.493 1244.43 -149.532" stroke="#ABABAB" stroke-miterlimit="10"/>
<path d="M109.776 622.561C117.271 568.096 166.559 516.151 229.02 501.985C282.597 489.832 340.371 502.972 391.643 519.326C438.657 534.307 486.296 548.487 528.089 538.829C581.269 526.556 612.331 480.561 668.29 452.148C718.34 426.723 770.116 414.131 821.648 417.092C854.71 418.986 888.276 429.911 920.819 443.104C1012.98 480.481 1032.23 565.068 1111.51 580.221C1192.78 595.562 1245.39 568.576 1269.95 542.017C1298.91 510.736 1327.33 435.18 1265.5 373.151C1236.33 343.884 1207 310.335 1180.23 275.092C1145.03 228.737 1139.98 164.721 1174.86 122.421C1201.19 90.4863 1246.04 70.1169 1272.08 33.6465C1291.96 5.79355 1299.32 -25.9146 1297.15 -55.1282C1294.77 -87.0897 1282.06 -117.771 1260.89 -145.13" stroke="#4643EB" stroke-miterlimit="10"/>
<path d="M112.096 624.829C121.575 569.056 170.588 515.218 234.591 499.984C288.458 487.164 347.072 499.997 398.344 517.392C444.762 533.133 490.966 548.94 532.622 541.67C585.573 532.439 619.307 490.006 675.189 462.033C726.14 436.514 777.229 420.894 829.631 421.814C863.838 422.414 899.021 432.539 932.801 445.852C1022.16 481.068 1043.34 561.306 1120.59 576.233C1199.01 591.16 1251.24 566.481 1276.62 540.416C1306.14 510.122 1333.03 437.635 1276.49 376.98C1248.94 347.419 1221.15 313.483 1194.85 278.48C1161 233.433 1155.14 172.191 1186.89 130.532C1211.35 98.4232 1254.03 76.8665 1279.97 40.9297C1300.15 12.97 1309 -18.3646 1308.62 -47.6582C1308.19 -80.2201 1297.4 -112.035 1277.37 -140.728" stroke="#B7B7B7" stroke-miterlimit="10"/>
<path d="M114.417 627.083C125.895 570.003 174.634 514.297 240.162 497.983C294.304 484.497 353.773 497.009 405.045 515.471C450.868 531.972 495.637 549.407 537.171 544.525C589.893 538.335 626.298 499.477 682.119 471.917C733.986 446.305 784.388 427.617 837.629 426.55C872.996 425.829 909.767 435.194 944.783 448.6C1031.3 481.722 1054.44 557.557 1129.68 572.244C1205.23 586.771 1257.07 564.387 1283.29 538.815C1313.38 509.495 1338.8 439.996 1287.48 380.822C1261.56 350.928 1235.32 316.658 1209.46 281.882C1176.95 238.128 1170.25 179.634 1198.9 138.655C1221.51 106.334 1262.03 83.6431 1287.86 48.2399C1308.34 20.1602 1318.69 -10.7876 1320.08 -40.1746C1321.64 -73.3367 1312.72 -106.299 1293.84 -136.313" stroke="#BCBCBC" stroke-miterlimit="10"/>
<path d="M116.737 629.351C130.2 570.977 178.679 513.39 245.734 495.982C300.165 481.855 360.474 494.008 411.746 513.537C456.989 530.772 500.308 549.847 541.704 547.366C594.198 544.218 633.274 508.948 689.018 481.802C741.786 456.11 791.501 434.313 845.612 431.272C882.124 429.218 920.498 437.862 956.75 451.335C1040.38 482.429 1065.54 553.782 1138.73 568.256C1211.43 582.382 1262.86 562.28 1289.93 537.228C1320.57 508.881 1344.61 442.264 1298.44 384.663C1274.17 354.383 1249.44 319.82 1224.05 285.284C1192.87 242.837 1185.3 187.038 1210.9 146.779C1231.61 114.217 1270.01 90.433 1295.72 55.5367C1316.49 27.3502 1328.4 -3.22399 1331.51 -32.7044C1335.09 -66.4668 1328.03 -100.563 1310.28 -131.911" stroke="#4643EB" stroke-miterlimit="10"/>
<path d="M119.057 631.619C134.505 571.937 182.724 512.51 251.305 493.981C306.027 479.201 367.19 491.006 418.447 511.616C463.11 529.571 504.964 550.314 546.253 550.221C598.502 550.1 640.265 518.432 695.948 491.7C749.632 465.928 798.645 440.996 853.611 436.007C891.267 432.592 931.229 440.556 968.733 454.082C1049.45 483.203 1076.65 550.02 1147.81 564.267C1217.64 577.994 1268.67 560.159 1296.61 535.627C1327.79 508.241 1350.56 444.411 1309.44 388.505C1286.85 357.798 1263.59 322.995 1238.68 288.685C1208.81 247.559 1200.33 194.401 1222.93 154.903C1241.7 122.074 1278.03 97.2094 1303.63 62.8334C1324.71 34.5268 1338.17 4.33943 1342.99 -25.221C1348.61 -59.5837 1343.39 -94.8268 1326.78 -127.495" stroke="#4643EB" stroke-miterlimit="10"/>
<path d="M121.377 633.886C138.824 572.911 186.769 511.629 256.877 491.993C311.888 476.586 373.906 487.991 425.148 509.695C469.246 528.37 509.635 550.767 550.787 553.075C602.807 555.983 647.256 527.917 702.847 501.584C757.447 475.732 805.743 447.639 861.594 440.729C900.38 435.941 941.929 443.264 980.7 456.83C1058.49 484.03 1087.72 546.392 1156.88 560.279C1223.83 573.711 1274.46 558.037 1303.26 534.026C1334.96 507.587 1356.62 446.452 1320.42 392.334C1299.55 361.146 1277.72 326.156 1253.29 292.073C1224.74 252.255 1215.29 201.711 1234.94 163.027C1251.76 129.905 1286.03 103.986 1311.5 70.1433C1332.89 41.7301 1347.92 11.9295 1354.44 -17.7376C1362.12 -52.7006 1358.71 -89.0776 1343.24 -123.08" stroke="#CDCDCD" stroke-miterlimit="10"/>
<path d="M123.713 636.141C143.144 573.858 190.844 510.749 262.463 489.979C317.78 473.945 380.638 484.95 431.864 507.761C475.382 527.143 514.321 551.208 555.335 555.903C607.126 561.839 654.262 537.388 709.777 511.456C765.293 485.537 812.856 454.242 869.592 445.452C909.508 439.262 952.629 445.999 992.682 459.565C1067.51 484.883 1098.83 542.63 1165.94 556.277C1230.04 569.309 1280.24 555.89 1309.92 532.412C1342.14 506.92 1362.82 448.386 1331.39 396.162C1312.31 364.441 1291.84 329.318 1267.89 295.462C1240.66 256.964 1230.19 208.995 1246.95 171.137C1261.76 137.695 1294.03 110.762 1319.39 77.4267C1341.08 48.9068 1357.72 19.5064 1365.9 -10.2675C1375.67 -45.804 1374.06 -83.3548 1359.72 -118.678" stroke="#D2D2D2" stroke-miterlimit="10"/>
<path d="M126.033 638.408C147.448 574.832 194.904 509.895 268.035 487.978C323.657 471.317 387.369 481.895 438.565 505.84C481.533 525.929 518.992 551.661 559.884 558.758C611.446 567.722 661.268 546.886 716.692 521.354C773.123 495.368 819.938 460.859 877.591 450.187C918.621 442.597 963.314 448.787 1004.68 462.313C1076.53 485.817 1109.96 538.869 1175.04 552.288C1236.28 564.921 1286.04 553.742 1316.6 530.811C1349.34 506.24 1369.2 450.254 1342.4 400.004C1325.18 367.722 1305.99 332.506 1282.52 298.863C1256.58 261.699 1245.04 216.265 1258.98 179.261C1271.71 145.472 1302.05 117.552 1327.29 84.7235C1349.28 56.1102 1367.54 27.0967 1377.37 -2.79725C1389.26 -38.9074 1389.38 -77.6188 1376.19 -114.276" stroke="#006D30" stroke-miterlimit="10"/>
<path d="M128.353 640.676C151.753 575.792 198.98 509.041 273.606 485.991C329.534 468.716 394.116 478.854 445.266 503.919C487.67 524.702 523.662 552.101 564.417 561.613C615.75 573.591 668.259 556.383 723.607 531.252C780.969 505.2 827.005 467.462 885.574 454.923C927.718 445.905 973.983 451.601 1016.65 465.061C1085.5 486.778 1121.04 535.107 1184.09 548.3C1242.48 560.519 1291.78 551.595 1323.24 529.211C1356.49 505.56 1375.7 452.055 1353.36 403.832C1338.12 370.937 1320.08 335.667 1297.11 302.252C1272.47 266.408 1259.79 223.508 1270.98 187.371C1281.55 153.222 1310.05 124.329 1335.15 92.0203C1357.46 63.3003 1377.32 34.7003 1388.82 4.67294C1402.84 -31.9841 1404.71 -71.8827 1392.65 -109.874" stroke="#DEDEDE" stroke-miterlimit="10"/>
<path d="M130.673 642.93C156.073 576.74 203.056 508.188 279.193 483.976C335.426 466.101 400.878 475.786 451.982 501.985C493.852 523.448 528.349 552.528 568.982 564.454C620.101 579.448 675.281 565.881 730.537 541.123C788.83 515.017 834.088 474.012 893.588 459.632C936.816 449.173 984.653 454.443 1028.64 467.782C1094.49 487.765 1132.17 531.318 1193.19 544.284C1248.72 556.09 1297.57 549.393 1329.93 527.583C1363.66 504.839 1382.42 453.789 1364.38 407.647C1351.25 374.098 1334.22 338.829 1311.75 305.627C1288.39 271.117 1274.49 230.738 1283.02 195.469C1291.37 160.959 1318.1 131.092 1343.07 99.2903C1365.69 70.4636 1387.18 42.2905 1400.31 12.1297C1416.47 -25.0743 1420.08 -66.1734 1409.16 -105.485" stroke="#E3E3E3" stroke-miterlimit="10"/>
<path d="M132.993 645.198C160.377 577.713 207.131 507.361 284.764 481.989C341.302 463.5 407.64 472.718 458.683 500.064C500.003 522.208 533.05 552.915 573.515 567.309C624.451 585.237 682.271 575.392 737.451 551.021C796.676 524.862 841.125 480.602 901.57 464.367C945.882 452.468 995.292 457.351 1040.61 470.543C1103.45 488.819 1143.29 527.463 1202.26 540.309C1254.95 551.608 1303.32 547.233 1336.58 525.996C1370.8 504.146 1389.29 455.55 1375.35 411.489C1364.53 377.273 1348.3 342.03 1326.35 309.028C1304.28 275.853 1289.1 237.995 1295.03 203.592C1301.06 168.723 1326.11 137.882 1350.95 106.587C1373.89 77.667 1397.01 49.9207 1411.76 19.5999C1430.09 -18.1243 1435.4 -60.4374 1425.62 -101.083" stroke="#E9E9E9" stroke-miterlimit="10"/>
<path d="M135.313 647.466C164.681 578.674 211.206 506.534 290.32 479.988C347.179 460.899 414.402 469.636 465.369 498.143C506.17 520.954 537.72 553.369 578.048 570.163C628.755 591.12 689.278 584.903 744.35 560.919C804.506 534.72 848.131 487.165 909.554 469.116C954.949 455.777 1005.9 460.339 1052.58 473.305C1112.41 489.926 1154.39 523.715 1211.31 536.334C1261.15 547.233 1309.05 545.045 1343.22 524.409C1377.93 503.452 1396.34 457.351 1386.31 415.344C1377.98 380.461 1362.38 345.245 1340.93 312.443C1320.13 280.615 1303.58 245.305 1307.02 211.729C1310.62 176.513 1334.11 144.698 1358.81 113.897C1382.08 84.8837 1406.83 57.5776 1423.19 27.0967C1443.69 -11.1344 1450.7 -54.6881 1442.06 -96.6543" stroke="#EEEEEE" stroke-miterlimit="10"/>
<path d="M137.633 649.734C168.986 579.634 215.297 505.72 295.891 477.987C353.071 458.311 421.179 466.542 472.069 496.209C512.336 519.686 542.391 553.809 582.581 572.991C633.075 596.976 696.329 594.495 751.265 570.79C812.413 544.658 855.152 493.701 917.537 473.825C963.985 459.018 1016.51 463.353 1064.56 476.026C1121.39 491.006 1165.5 519.927 1220.39 532.319C1267.37 542.817 1314.8 542.817 1349.89 522.781C1385.09 502.692 1403.61 459.192 1397.3 419.146C1391.7 383.623 1376.45 348.407 1355.55 315.805C1336.02 285.324 1318.05 252.589 1319.04 219.813C1320.13 184.29 1342.21 151.488 1366.7 121.167C1390.36 92.1004 1416.69 65.2079 1434.65 34.5403C1457.34 -4.18442 1466.04 -48.9786 1458.54 -92.2788" stroke="#F4F4F4" stroke-miterlimit="10"/>
<path d="M139.954 651.988C173.29 580.595 219.434 505.013 301.463 475.986C358.993 455.79 427.972 463.447 478.771 494.288C518.534 518.432 547.062 554.276 587.115 575.846C637.38 602.872 703.305 603.966 758.164 580.675C820.228 554.463 862.128 500.251 925.52 478.547C973.022 462.273 1027.09 466.462 1076.53 478.761C1130.36 492.153 1176.6 516.165 1229.44 528.317C1273.57 538.402 1320.51 540.576 1356.53 521.167C1392.2 501.931 1411.01 461.179 1408.28 422.975C1405.68 386.878 1390.49 351.608 1370.16 319.206C1351.88 290.073 1332.45 259.979 1331.06 227.937C1329.51 192.16 1350.21 158.278 1374.59 128.464C1398.55 99.277 1426.53 72.878 1446.12 42.0103C1470.98 2.80532 1481.38 -43.2561 1475.01 -87.877" stroke="#F9F9F9" stroke-miterlimit="10"/>
<path d="M142.274 654.256C177.61 581.555 223.494 504.119 307.05 473.985C364.87 453.135 434.795 460.325 485.487 492.367C524.731 517.165 551.764 554.729 591.679 578.701C641.73 608.755 710.312 613.45 765.11 590.573C828.074 564.281 869.15 506.814 933.534 483.283C982.089 465.541 1037.67 469.69 1088.53 481.522C1139.37 493.354 1187.73 512.416 1238.54 524.355C1279.8 534.04 1326.28 538.375 1363.22 519.593C1399.38 501.211 1418.61 463.394 1419.28 426.843C1419.95 390.293 1404.57 354.85 1384.79 322.635C1367.74 294.848 1346.79 267.462 1343.08 236.101C1338.83 200.137 1358.21 165.094 1382.48 135.801C1406.75 106.507 1436.39 80.5884 1457.58 49.5339C1484.64 9.8621 1496.72 -37.4666 1491.5 -83.4214" stroke="white" stroke-miterlimit="10"/>
<path d="M747.449 925.022C702.97 900.984 700.894 842.077 726.98 802.458C753.066 762.84 798.508 736.654 838.896 707.614C879.285 678.574 918.117 641.276 921.46 595.655C925.718 537.348 870.554 484.403 877.621 426.296C883.132 381.008 925.459 346.752 969.939 327.623C995.094 316.805 1024.16 313.017 1050.18 304.079C1168.23 263.567 1273.19 328.971 1346.75 275.773C1426.4 218.172 1422.34 153.702 1407.62 121.941C1388.77 81.2552 1325.64 -8.88017 1201.31 15.9581C1150.8 26.0428 1098.98 34.6201 1047.28 31.8188C969.862 27.6302 894.58 -25.608 889.634 -93.2528C886.246 -139.608 913.767 -187.83 894.61 -231.17C881.743 -260.291 849.139 -280.447 814.367 -287.61C779.595 -294.773 742.916 -290.465 708.541 -281.941" stroke="white" stroke-miterlimit="10"/>
<path d="M750.914 924.862C706.526 898.65 702.496 838.688 728.674 797.416C754.226 757.13 800.11 730.278 841.369 701.851C882.139 673.758 921.444 638.381 926.833 594.361C933.656 538.095 883.36 485.604 890.764 427.803C896.778 381.849 936.052 346.472 979.143 325.169C1003.9 312.936 1033.21 307.281 1060.12 297.676C1174.19 256.95 1276.78 319.086 1348.85 267.128C1426.35 211.222 1424.17 148.406 1410.34 116.432C1392.83 75.906 1331.74 -10.6677 1211.58 10.9024C1162.05 19.7998 1110.63 27.0032 1059.43 24.0151C984.012 19.7465 910.973 -31.1172 904.379 -96.3209C899.815 -141.435 924.802 -189.004 906.043 -231.931C893.267 -261.331 861.945 -282.074 828.196 -290.692C794.142 -299.389 757.615 -297.281 722.782 -290.358" stroke="#FBFBFB" stroke-miterlimit="10"/>
<path d="M754.395 924.702C710.083 896.315 704.115 835.313 730.384 792.36C755.432 751.421 801.713 723.888 843.857 696.075C884.994 668.916 924.788 635.474 932.221 593.04C941.609 538.828 896.045 486.751 903.906 429.271C910.302 382.636 946.661 346.085 988.362 322.674C1012.74 308.988 1042.28 301.504 1070.06 291.22C1180.17 250.441 1280.36 309.148 1350.96 258.431C1426.3 204.219 1425.98 143.071 1413.07 110.869C1396.88 70.5302 1337.83 -12.5486 1221.87 5.80667C1173.27 13.5036 1122.29 19.3463 1071.6 16.1715C998.177 11.8228 927.367 -36.6932 919.125 -99.4424C913.37 -143.33 935.839 -190.231 917.461 -232.758C904.776 -262.425 874.706 -283.795 842.01 -293.84C808.643 -304.098 772.315 -304.151 736.993 -298.842" stroke="#F6F6F6" stroke-miterlimit="10"/>
<path d="M757.859 924.529C713.639 893.981 705.748 831.925 732.094 787.304C756.653 745.712 803.316 717.499 846.33 690.286C887.833 664.047 928.115 632.552 937.594 591.72C949.561 539.562 908.791 487.912 917.048 430.752C923.887 383.436 957.269 345.659 997.582 320.193C1021.58 305.026 1051.34 295.755 1080.01 284.777C1186.23 244.065 1283.97 299.224 1353.08 249.747C1426.27 197.229 1427.82 137.748 1415.8 105.333C1400.92 65.1812 1343.86 -14.4693 1232.16 0.72448C1184.46 7.2075 1133.97 11.5829 1083.76 8.35471C1012.36 3.75256 943.715 -42.2556 933.885 -102.537C926.924 -145.197 946.768 -191.392 928.893 -233.558C916.209 -263.479 887.482 -285.502 855.839 -296.961C823.159 -308.793 787.014 -311.008 751.235 -307.299" stroke="#F2F2F2" stroke-miterlimit="10"/>
<path d="M761.339 924.368C717.196 891.646 707.396 828.577 733.803 782.262C757.874 740.029 804.888 711.109 848.818 684.523C890.657 659.191 931.458 629.658 942.997 590.413C957.529 540.296 921.582 489.072 930.221 432.232C937.517 384.237 967.893 345.192 1006.82 317.699C1030.43 301.024 1060.42 290.019 1089.98 278.32C1192.35 237.795 1287.6 289.286 1355.22 241.05C1426.26 190.213 1429.66 132.426 1418.57 99.7706C1404.98 59.8186 1349.86 -16.4703 1242.49 -4.3713C1195.68 0.897827 1145.69 3.89923 1095.97 0.510985C1026.57 -4.21122 960.093 -47.8582 948.676 -105.659C940.494 -147.118 957.819 -192.619 940.372 -234.385C927.764 -264.573 900.304 -287.277 869.714 -300.122C837.706 -313.555 801.759 -317.891 765.506 -315.796" stroke="#EEEEEE" stroke-miterlimit="10"/>
<path d="M764.805 924.208C720.752 889.312 709.045 825.229 735.497 777.22C759.111 734.36 806.445 704.719 851.291 678.761C893.466 654.336 934.862 626.79 948.37 589.119C965.573 541.083 934.358 490.259 943.364 433.726C951.118 385.05 978.456 344.672 1016.04 315.231C1039.27 297.036 1069.51 284.31 1099.91 271.891C1198.49 231.659 1291.19 279.374 1357.34 232.379C1426.23 183.236 1431.48 127.13 1421.3 94.2348C1409.01 54.4829 1355.77 -18.5111 1252.78 -9.44022C1206.81 -5.39833 1157.35 -3.7709 1108.14 -7.30588C1040.73 -12.1481 976.38 -53.4474 963.436 -108.74C954.003 -149.012 968.84 -193.793 951.805 -235.172C939.273 -265.626 913.065 -289.024 883.544 -303.23C852.207 -318.304 816.473 -324.734 779.748 -324.24" stroke="#E9E9E9" stroke-miterlimit="10"/>
<path d="M768.285 924.048C724.309 886.991 710.739 821.881 737.223 772.164C760.393 728.677 808.033 698.303 853.794 672.985C896.29 649.467 938.235 623.895 953.774 587.798C973.556 541.83 947.165 491.42 956.522 435.207C964.734 385.864 989.034 344.111 1025.27 312.75C1048.09 292.994 1078.59 278.601 1109.88 265.461C1204.69 225.629 1294.8 269.463 1359.48 223.708C1426.21 176.26 1433.3 121.834 1424.06 88.7121C1413.04 49.1737 1361.66 -20.6188 1263.1 -14.5093C1217.95 -11.708 1169.04 -11.4279 1120.35 -15.1229C1054.96 -20.0852 992.667 -59.0501 978.227 -111.835C967.527 -150.933 979.891 -194.993 963.284 -235.959C950.828 -266.68 925.887 -290.811 897.419 -306.339C866.754 -323.067 831.219 -331.564 794.02 -332.684" stroke="#E5E5E5" stroke-miterlimit="10"/>
<path d="M771.75 923.888C727.866 884.656 712.418 818.546 738.917 767.122C761.645 723.021 809.559 691.9 856.252 667.208C899.068 644.571 941.563 621 959.132 586.491C981.494 542.577 959.941 492.594 969.649 436.688C978.334 386.664 999.536 343.511 1034.46 310.269C1056.87 288.939 1087.64 272.918 1119.8 259.018C1210.88 219.666 1298.38 259.538 1361.57 215.024C1426.17 169.27 1435.05 116.538 1426.76 83.1628C1416.99 43.8378 1366.07 -33.8251 1273.36 -19.5918C1229.61 -12.882 1180.69 -19.0982 1132.49 -22.9533C1069.09 -28.0224 1008.83 -64.6795 992.957 -114.943C980.975 -152.881 990.896 -196.194 974.686 -236.773C962.307 -267.774 938.632 -292.652 911.218 -309.474C881.224 -327.882 845.888 -338.434 808.231 -341.155" stroke="#E1E1E1" stroke-miterlimit="10"/>
<path d="M775.23 923.728C731.437 882.322 714.113 815.224 740.626 762.079C762.942 717.365 811.116 685.47 858.74 661.446C901.861 639.689 944.906 618.119 964.52 585.197C989.462 543.351 972.747 493.781 982.806 438.195C991.98 387.505 1010.05 342.911 1043.69 307.801C1065.68 284.87 1096.74 267.249 1129.75 252.588C1217.14 213.784 1301.98 249.627 1363.69 206.354C1426.14 162.293 1436.84 111.256 1429.51 77.6402C1420.99 38.542 1372.06 -37.0532 1283.66 -24.6608C1240.59 -18.618 1192.37 -26.7551 1144.67 -30.757C1083.27 -35.9194 1024.98 -70.2954 1007.72 -118.011C994.407 -154.801 1001.93 -197.368 986.134 -237.547C973.831 -268.815 951.439 -294.467 925.062 -312.568C895.755 -332.684 860.617 -345.25 822.472 -349.599" stroke="#DCDCDC" stroke-miterlimit="10"/>
<path d="M778.695 923.555C734.978 879.988 715.822 811.876 742.336 757.01C764.24 711.682 812.642 679.014 861.227 655.656C904.654 634.78 948.248 615.211 969.908 583.863C997.414 544.084 985.569 494.941 995.964 439.649C1005.61 388.278 1020.52 342.244 1052.93 305.293C1074.45 280.762 1105.83 261.566 1139.72 246.119C1223.46 207.941 1305.6 239.676 1365.83 197.643C1426.12 155.276 1438.62 105.947 1432.26 72.0643C1424.96 33.1929 1378.08 -40.2147 1293.96 -29.7698C1251.47 -24.4873 1204.06 -34.4386 1156.85 -38.6139C1097.45 -43.8697 1041.08 -75.9513 1022.49 -121.146C1007.82 -156.789 1012.98 -198.609 997.582 -238.387C985.37 -269.922 964.26 -296.374 938.922 -315.73C910.317 -337.567 875.347 -352.147 836.729 -358.096" stroke="#006D30" stroke-miterlimit="10"/>
<path d="M782.175 923.395C738.55 877.653 717.562 808.554 744.045 751.968C765.537 706.04 814.169 672.584 863.701 649.894C907.417 629.871 951.576 612.316 975.296 582.569C1005.37 544.845 998.391 496.129 1009.12 441.143C1019.27 389.105 1030.98 341.59 1062.15 302.825C1083.2 276.666 1114.93 255.95 1149.67 239.689C1229.79 202.205 1309.2 229.765 1367.96 188.972C1426.11 148.3 1440.39 100.678 1435.02 66.5284C1428.93 27.8971 1384.19 -43.2294 1304.28 -34.8388C1262.28 -30.4368 1215.75 -42.0822 1169.04 -46.4309C1111.65 -51.7801 1057.14 -81.5806 1037.27 -124.241C1021.2 -158.75 1024.05 -199.809 1009.03 -239.187C996.91 -271.002 977.097 -298.255 952.767 -318.851C924.894 -342.436 890.062 -359.003 850.986 -366.553" stroke="#D4D4D4" stroke-miterlimit="10"/>
<path d="M785.64 923.234C742.091 875.319 719.287 805.246 745.739 746.926C766.85 700.397 815.679 666.128 866.173 644.131C910.179 624.962 954.888 609.435 980.669 581.262C1013.3 545.592 1011.21 497.303 1022.25 442.637C1032.89 389.919 1041.36 340.923 1071.35 300.357C1091.9 272.571 1124.03 250.347 1159.59 233.273C1236.13 196.536 1312.77 219.867 1370.06 180.315C1426.04 141.337 1442.12 95.4219 1437.74 61.0192C1432.85 22.628 1390.19 -32.8912 1314.56 -39.8945C1273.01 -43.7496 1227.41 -49.7124 1181.19 -54.2345C1125.8 -59.6637 1073.08 -87.1832 1052.01 -127.309C1034.51 -160.671 1035.07 -200.983 1020.46 -239.948C1008.42 -272.029 989.934 -300.122 966.595 -321.933C939.456 -347.291 904.776 -365.806 865.211 -374.971" stroke="#CFCFCF" stroke-miterlimit="10"/>
<path d="M789.12 923.074C745.664 872.998 721.058 801.938 747.465 741.883C768.193 694.755 817.206 659.672 868.677 638.355C912.958 620.027 958.247 606.54 986.073 579.954C1021.26 546.339 1024.07 498.477 1035.42 444.118C1046.56 390.733 1051.77 340.229 1080.6 297.863C1100.63 268.436 1133.19 244.732 1169.58 226.817C1242.56 190.88 1316.49 210.035 1372.21 171.617C1426.14 134.427 1443.87 90.1262 1440.5 55.4567C1436.79 17.2922 1395.84 -35.7592 1324.87 -44.9902C1283.98 -50.3126 1239.11 -57.3693 1193.41 -62.0781C1140.01 -67.574 1089.01 -92.8124 1066.8 -130.43C1047.8 -162.632 1046.15 -202.21 1031.93 -240.775C1019.99 -273.136 1002.83 -302.057 980.456 -325.081C954.095 -352.213 919.506 -372.69 879.484 -383.455" stroke="#CBCBCB" stroke-miterlimit="10"/>
<path d="M792.585 922.914C749.205 870.663 722.813 798.63 749.159 736.828C769.506 689.099 818.702 653.175 871.149 632.579C915.705 615.077 961.559 603.632 991.446 578.634C1029.19 547.072 1036.9 499.65 1048.56 445.598C1060.23 391.547 1062.12 339.536 1089.82 295.382C1109.31 264.314 1142.33 239.169 1179.53 220.373C1249 185.277 1320.11 200.111 1374.33 162.947C1426.11 127.45 1445.58 84.857 1443.25 49.9207C1440.7 11.9963 1401.45 -38.7606 1335.18 -50.0726C1294.94 -56.9424 1250.78 -65.0129 1205.59 -69.9085C1154.19 -75.4711 1104.84 -98.4018 1081.58 -133.538C1061.02 -164.579 1057.23 -203.424 1043.39 -241.589C1031.54 -274.23 1015.75 -303.978 994.315 -328.216C968.748 -357.136 934.236 -379.546 893.74 -391.925" stroke="#4643EB" stroke-miterlimit="10"/>
<path d="M796.065 922.754C752.776 868.329 724.599 795.321 750.868 731.785C770.849 683.469 820.213 646.692 873.622 626.816C918.453 610.128 964.871 600.737 996.819 577.34C1037.12 547.833 1049.74 500.837 1061.71 447.092C1073.89 392.374 1072.44 338.869 1099.03 292.914C1117.95 260.205 1151.49 233.646 1189.45 213.944C1255.42 179.728 1323.68 190.199 1376.42 154.276C1426.04 120.473 1447.26 79.5878 1445.95 44.398C1444.54 6.71381 1407.06 -41.8955 1345.45 -55.1284C1305.87 -63.6257 1262.43 -72.6165 1217.74 -77.6989C1168.34 -83.3148 1120.6 -103.924 1096.33 -136.606C1074.16 -166.447 1068.27 -204.611 1054.81 -242.362C1043.07 -275.271 1028.63 -305.872 1008.13 -331.31C983.371 -362.031 948.92 -386.376 907.966 -400.356" stroke="#4643EB" stroke-miterlimit="10"/>
<path d="M799.53 922.581C756.333 865.981 726.37 792 752.578 726.73C772.208 677.813 821.709 640.183 876.11 621.04C921.216 605.166 968.199 597.829 1002.22 576.019C1045.07 548.553 1062.61 502.011 1074.86 448.56C1087.56 393.161 1082.76 338.162 1108.26 290.42C1126.62 256.07 1160.69 228.124 1199.42 207.488C1261.93 174.192 1327.3 180.262 1378.57 145.579C1426.04 113.47 1448.97 74.2921 1448.73 38.8356C1448.47 1.37813 1412.78 -45.2302 1355.78 -60.2239C1316.89 -70.4553 1274.15 -80.2599 1229.95 -85.5424C1182.55 -91.2117 1136.33 -109.447 1111.12 -139.714C1087.29 -168.314 1079.37 -205.825 1066.27 -243.176C1054.64 -276.365 1041.57 -307.819 1021.99 -334.445C998.07 -366.967 963.665 -393.232 922.223 -408.826" stroke="#BEBEBE" stroke-miterlimit="10"/>
<path d="M803.01 922.421C759.889 863.66 728.186 788.705 754.287 721.674C773.566 672.171 823.22 633.646 878.598 615.264C923.963 600.191 971.526 594.922 1007.61 574.712C1053.01 549.287 1075.47 503.199 1088.02 450.054C1101.26 394.001 1093.04 337.481 1117.5 287.938C1135.26 251.948 1169.93 222.655 1209.39 201.058C1268.46 168.723 1330.9 170.337 1380.71 136.908C1426.03 106.48 1450.67 69.0096 1451.47 33.2996C1452.33 -3.93105 1418.55 -48.6852 1366.09 -65.3063C1327.94 -77.3919 1285.83 -87.8768 1242.13 -93.3727C1196.72 -99.082 1151.99 -114.916 1125.89 -142.822C1100.32 -170.128 1090.43 -207.039 1077.7 -243.976C1066.18 -277.445 1054.52 -309.74 1035.82 -337.567C1012.77 -371.889 978.364 -400.089 936.464 -417.284" stroke="#BABABA" stroke-miterlimit="10"/>
<path d="M806.49 922.261C763.461 861.326 730.002 785.41 755.997 716.631C774.939 666.541 824.716 627.123 881.086 609.488C926.726 595.215 974.807 591.933 1013 573.391C1060.9 549.927 1088.34 504.373 1101.18 451.521C1114.95 394.801 1103.32 336.788 1126.72 285.444C1143.87 247.8 1179.18 217.212 1219.32 194.601C1275.01 163.24 1334.41 160.319 1382.82 128.211C1425.91 99.3971 1452.3 63.7138 1454.21 27.7503C1456.16 -9.25357 1424.41 -52.287 1376.38 -70.3887C1339.07 -84.4486 1297.49 -95.4805 1254.29 -101.203C1210.88 -106.952 1167.59 -120.319 1140.64 -145.931C1113.31 -171.876 1101.51 -208.266 1089.15 -244.79C1077.73 -278.539 1067.48 -311.675 1049.66 -340.701C1027.5 -376.825 993.079 -406.946 950.705 -425.754" stroke="#B5B5B5" stroke-miterlimit="10"/>
<path d="M809.955 922.101C767.002 858.991 731.818 782.116 757.706 711.589C776.313 660.899 826.211 620.587 883.559 603.726C929.458 590.226 978.135 589.039 1018.37 572.098C1068.83 550.688 1101.21 505.573 1114.32 453.029C1128.64 395.642 1113.57 336.134 1135.94 282.989C1152.47 243.704 1188.47 211.863 1229.28 188.185C1281.59 157.838 1338.02 150.421 1384.94 119.553C1425.88 92.4339 1453.93 58.4447 1456.94 22.2279C1459.99 -14.5493 1430.41 -55.9686 1386.66 -75.4576C1350.33 -91.6385 1309.14 -103.071 1266.47 -109.02C1225.05 -114.796 1183.19 -125.641 1155.41 -149.012C1126.27 -173.53 1112.6 -209.467 1100.61 -245.577C1089.32 -279.606 1080.48 -313.569 1063.52 -343.809C1042.27 -381.734 1007.82 -413.789 964.977 -434.198" stroke="#4643EB" stroke-miterlimit="10"/>
<path d="M813.436 921.941C770.574 856.67 733.666 778.82 759.416 706.547C777.687 655.27 827.708 614.037 886.047 597.963C932.221 585.237 981.478 586.157 1023.76 570.79C1076.79 551.421 1114.2 506.774 1127.46 454.509C1142.47 396.496 1123.8 335.454 1145.16 280.508C1161.06 239.596 1197.82 206.54 1239.23 181.742C1288.19 152.422 1341.62 140.496 1387.06 110.869C1425.85 85.4439 1455.57 53.1355 1459.69 16.6919C1463.82 -19.8718 1436.62 -59.7438 1396.97 -80.5268C1361.78 -98.9887 1320.81 -110.661 1278.65 -116.85C1239.23 -122.64 1198.78 -130.91 1170.17 -152.12C1139.17 -175.104 1123.75 -210.707 1112.05 -246.391C1100.93 -280.727 1093.46 -315.49 1077.37 -346.944C1057.04 -386.656 1022.54 -420.645 979.219 -442.669" stroke="#ADADAD" stroke-miterlimit="10"/>
<path d="M816.901 921.78C774.116 854.336 735.619 775.552 761.11 701.491C779.137 649.654 829.173 607.461 888.52 592.187C934.953 580.235 984.806 583.249 1029.15 569.483C1084.74 552.168 1127.02 507.961 1140.62 455.99C1156.13 397.296 1134.03 334.787 1154.37 278.014C1169.62 235.46 1207.23 201.271 1249.16 175.299C1294.83 147.019 1345.22 130.572 1389.17 102.185C1425.82 78.454 1457.15 47.8264 1462.4 11.1426C1467.61 -25.2077 1443.03 -63.5589 1407.24 -85.6225C1373.41 -106.472 1332.45 -118.224 1290.8 -124.667C1253.36 -130.457 1214.35 -136.086 1184.92 -155.215C1152.04 -176.572 1134.79 -211.908 1123.46 -247.191C1112.44 -281.794 1106.43 -317.397 1091.18 -350.066C1071.8 -391.565 1037.22 -427.502 993.43 -451.126" stroke="#A8A8A8" stroke-miterlimit="10"/>
<path d="M820.381 921.607C777.687 851.988 737.36 772.217 762.835 696.435C780.465 643.984 830.684 600.871 891.008 586.397C937.716 575.192 988.149 580.328 1034.54 568.149C1092.69 552.888 1139.86 509.108 1153.78 457.457C1169.78 398.096 1144.25 334.106 1163.61 275.519C1178.2 231.339 1216.73 196.069 1259.13 168.843C1301.54 141.617 1348.84 120.634 1391.32 93.4877C1425.82 71.4507 1458.79 42.5039 1465.18 5.58004C1471.44 -30.5701 1449.77 -67.3606 1417.57 -90.7182C1385.4 -114.076 1344.14 -125.801 1303.02 -132.511C1267.56 -138.3 1230.01 -141.208 1199.71 -158.323C1164.97 -177.959 1145.86 -213.122 1134.94 -247.992C1124.03 -282.874 1119.48 -319.305 1105.06 -353.187C1086.63 -396.474 1051.98 -434.345 1007.72 -459.583" stroke="#A4A4A4" stroke-miterlimit="10"/>
</g>
<defs>
<clipPath id="clip0_53395_27706">
<rect width="1439" height="577" fill="white"/>
</clipPath>
</defs>
</svg>
