<svg width="18" height="18" viewBox="0 0 18 18" fill="none" xmlns="http://www.w3.org/2000/svg">
<path d="M16.4196 8C16.9719 8 17.4196 8.44772 17.4196 9V9C17.4196 9.55229 16.9719 10 16.4196 10L1.00024 10C0.447958 10 0.000244117 9.55228 0.000244141 9V9C0.000244164 8.44772 0.447959 8 1.00024 8L16.4196 8Z" fill="black"/>
<path d="M10 16.7099C10 17.2622 9.55228 17.7099 9 17.7099V17.7099C8.44771 17.7099 8 17.2622 8 16.7099L8 1.29053C8 0.738241 8.44772 0.290527 9 0.290527V0.290527C9.55228 0.290527 10 0.738243 10 1.29053L10 16.7099Z" fill="black"/>
</svg>
